<svg width="1383" height="176" viewBox="0 0 1383 176" fill="none" xmlns="http://www.w3.org/2000/svg">
<path d="M419.153 8.76357C419.159 6.97805 419.159 5.67196 419.159 3.78988C431.58 3.78988 443.688 3.71065 455.791 3.91665C456.958 3.93642 458.522 5.49758 459.181 6.72896C477.148 40.2977 495.021 73.917 512.912 107.526C513.279 108.214 513.68 108.884 514.252 109.89C526.101 87.3135 537.692 65.1361 549.375 43.0078C555.82 30.8023 562.361 18.6462 569.038 6.5674C569.731 5.31435 571.64 3.99337 573.007 3.96932C584.664 3.76418 596.327 3.85189 608.764 3.85189C609.919 59.3247 611.073 114.714 612.235 170.541C599.938 170.541 588.222 170.541 576.34 170.541C575.694 134.446 575.047 98.2694 574.399 62.0929C574.045 62.0109 573.69 61.929 573.336 61.8471C566.262 75.1115 559.193 88.3786 552.113 101.64C542.872 118.947 533.683 136.282 524.267 153.493C523.471 154.948 521.248 156.087 519.489 156.474C508.596 158.869 502.612 154.322 497.526 144.17C484.508 118.186 469.98 92.9582 456.052 67.4304C455.374 66.1887 454.653 64.9708 453.188 62.4018C453.188 99.4619 453.188 134.989 453.188 170.835C441.314 170.835 429.868 170.835 417.586 170.835C418.106 117.05 418.627 63.1463 419.153 8.76357Z" fill="#040404"/>
<path d="M788.564 72.1582C786.292 69.2991 784.255 66.7118 781.471 63.1767C781.471 99.6614 781.471 135.006 781.471 170.744C769.245 170.744 757.514 170.744 745.446 170.744C745.446 115.366 745.446 59.9497 745.446 3.77207C756.198 3.77207 767.118 3.67051 778.03 3.91569C779.233 3.94279 780.566 5.81693 781.546 7.06492C808.069 40.8645 834.554 74.6945 861.05 108.516C861.45 109.025 861.909 109.487 863.102 110.825C863.102 74.7775 863.102 39.6433 863.102 4.20975C875.218 4.20975 886.656 4.20975 898.35 4.20975C898.35 59.6874 898.35 115.233 898.35 171.308C888.275 171.308 878.644 171.405 869.019 171.196C867.691 171.167 866.053 169.89 865.134 168.734C839.643 136.669 814.227 104.544 788.564 72.1582Z" fill="#040404"/>
<path d="M210.1 33.5692C236.062 2.87826 279.276 -7.91879 319.587 5.97531C354.791 18.1092 377.89 52.1526 376.941 90.5063C376.035 127.169 350.496 160.476 315.362 170.451C285.628 178.893 256.757 176.91 230.402 160.028C187.087 132.281 178.057 74.7186 210.1 33.5692ZM249.254 130.993C260.521 139.596 273.231 144.13 287.395 142.983C321.119 140.252 342.937 112.255 338.124 78.3955C335.026 56.6071 317.998 38.306 296.592 33.7603C273.238 28.8006 249.745 38.1469 237.828 57.1383C222.947 80.8545 227.424 111.091 249.254 130.993Z" fill="#040404"/>
<path d="M959.746 148.937C949.499 134.946 945.697 119.219 945.536 102.627C945.222 70.3066 945.376 37.9816 945.351 5.65857C945.35 5.19366 945.529 4.72864 945.679 3.99365C957.83 3.99365 969.935 3.99365 982.843 3.99365C982.843 5.57983 982.847 7.31763 982.842 9.05542C982.762 36.2133 982.496 63.3726 982.711 90.5281C982.774 98.6293 983.341 106.913 985.15 114.775C988.841 130.819 1000.16 140.013 1016.61 141.384C1020.9 141.741 1025.32 141.753 1029.57 141.142C1048.14 138.466 1059 127.071 1061.06 107.933C1061.81 101.001 1061.85 93.9708 1061.87 86.9843C1061.96 60.9926 1061.91 35.0005 1061.91 9.00861C1061.91 7.3736 1061.91 5.73859 1061.91 3.89844C1074.28 3.89844 1086.24 3.89844 1098.18 3.89844C1098.38 4.21613 1098.71 4.48969 1098.71 4.76233C1098.61 39.2463 1099.35 73.7607 1098.14 108.206C1096.78 146.495 1071.18 171.588 1032.8 174.406C1015.14 175.702 997.87 174.253 981.588 166.5C973.027 162.423 965.659 156.874 959.746 148.937Z" fill="#040404"/>
<path d="M1258.68 15.0165C1262.55 17.5907 1266.12 19.9583 1270.07 22.5731C1263.73 31.4857 1257.68 39.9869 1251.47 48.7236C1246.82 46.1405 1242.31 43.4568 1237.65 41.0843C1224.66 34.4741 1211.03 30.6669 1196.29 32.5829C1193.52 32.943 1190.71 33.6484 1188.14 34.7305C1182.7 37.0242 1179.23 41.1031 1178.69 47.1745C1178.15 53.3564 1180.96 58.2006 1186.34 60.5984C1194.18 64.0989 1202.31 67.1017 1210.54 69.5574C1224.72 73.7865 1238.75 78.0805 1252.07 84.8417C1281.39 99.7167 1282.34 143.089 1255.95 161.344C1243.76 169.779 1230.21 173.659 1215.65 174.216C1186.85 175.318 1160.72 167.707 1137.96 149.614C1137.19 149.004 1136.46 148.343 1135.24 147.297C1142.15 138.502 1148.97 129.834 1155.94 120.962C1169.42 133.123 1184.95 140.895 1202.73 142.897C1210.47 143.768 1218.64 142.711 1226.36 141.23C1232.73 140.01 1237.21 135.425 1238.01 128.453C1238.79 121.666 1235.54 116.386 1229.78 113.762C1221.08 109.797 1211.9 106.837 1202.86 103.648C1191.29 99.5656 1179.3 96.4699 1168.1 91.5646C1131.03 75.3288 1136.54 31.6824 1160.03 14.2687C1171.17 6.01341 1183.83 2.627 1197.29 1.65318C1218.89 0.089828 1239.33 4.3087 1258.68 15.0165Z" fill="#040404"/>
<path d="M117.85 39.6799C83.8528 22.5797 45.9879 39.7498 39.072 75.0969C34.4688 98.6237 43.9652 123.071 62.081 134.33C82.1476 146.802 107.247 145.355 127.067 130.38C131.162 127.286 134.804 123.595 138.003 120.757C146.094 128.324 154.236 135.94 162.551 143.717C149.623 158.663 133.919 167.947 115.421 171.989C86.2265 178.369 58.2484 175.595 33.7187 157.027C7.24345 136.987 -2.63323 109.488 0.587715 77.0149C4.83692 34.1737 40.3828 2.31092 85.3737 0.57355C109.023 -0.339658 131.052 4.43738 150.092 19.337C153.738 22.1907 157.017 25.5149 160.666 28.8023C152.843 37.5789 145.337 45.9997 138.077 54.1437C131.331 49.2879 124.761 44.5593 117.85 39.6799Z" fill="#040404"/>
<path d="M659.274 25.5784C659.274 18.2559 659.274 11.4332 659.274 4.20557C671.52 4.20557 683.597 4.20557 696.023 4.20557C696.023 59.4818 696.023 115.018 696.023 170.95C684.068 170.95 672.16 170.95 659.274 170.95C659.274 122.809 659.274 74.4439 659.274 25.5784Z" fill="#040404"/>
<path d="M1383 146C1383 159.807 1371.81 171 1358 171C1344.19 171 1333 159.807 1333 146C1333 132.193 1344.19 121 1358 121C1371.81 121 1383 132.193 1383 146Z" fill="#FD0000"/>
</svg>
